<?xml version="1.0" encoding="utf-8"?>
<svg viewBox="267.885 100.159 410.97 239.269" width="410.97" height="239.269" xmlns="http://www.w3.org/2000/svg">
  <rect width="640" height="400" x="156.153" y="20.986" opacity="1" fill="#ffffff" data-fill-palette-color="background" id="background"/>
  <g id="tight-bounds" transform="matrix(1, 0, 0, 1, 278.392609, 103.756844)">
    <svg viewBox="0 0 395.52 234.4576836757219" height="234.4576836757219" width="395.52">
      <g>
        <svg viewBox="0 0 395.52 234.4576836757219" height="234.4576836757219" width="395.52">
          <g>
            <svg viewBox="0 0 395.52 234.4576836757219" height="234.4576836757219" width="395.52">
              <g>
                <svg viewBox="0 0 395.52 234.4576836757219" height="234.4576836757219" width="395.52">
                  <g>
                    <rect width="75.54431999999998" height="12.382926593355002" y="195.90133514243345" fill="#4790fc" data-fill-palette-color="tertiary"/>
                    <rect width="75.54431999999998" height="12.382926593355002" y="195.90133514243345" x="319.97568" fill="#4790fc" data-fill-palette-color="tertiary"/>
                  </g>
                  <g>
                    <svg viewBox="0 0 395.52 137.31187500000001" height="137.31187500000001" width="395.52">
                      <g transform="matrix(1,0,0,1,0,0)">
                        <svg width="395.52" viewBox="3.75 -35.20000076293945 102.4000015258789 35.54999923706055" height="137.31187500000001" data-palette-color="#4790fc">
                          <path d="M34.25-34.75L40.35-34.75 40.35 0 34.65 0 34.65-23.8 24.05 0 20.1 0 9.45-23.8 9.45 0 3.75 0 3.75-34.75 9.9-34.75 22.1-7.5 34.25-34.75ZM71.3 0L68.8-7.1 54.25-7.1 51.75 0 45.8 0 58.25-34.8 64.85-34.8 77.3 0 71.3 0ZM55.85-11.75L67.2-11.75 61.55-27.9 55.85-11.75ZM94.15 0.35Q90.65 0.35 87.85-0.88 85.05-2.1 83.45-4.35 81.85-6.6 81.85-9.6L81.85-9.6 87.95-9.6Q88.15-7.35 89.72-5.9 91.3-4.45 94.15-4.45L94.15-4.45Q97.1-4.45 98.75-5.88 100.4-7.3 100.4-9.55L100.4-9.55Q100.4-11.3 99.37-12.4 98.35-13.5 96.82-14.1 95.3-14.7 92.6-15.4L92.6-15.4Q89.2-16.3 87.07-17.23 84.95-18.15 83.45-20.1 81.95-22.05 81.95-25.3L81.95-25.3Q81.95-28.3 83.45-30.55 84.95-32.8 87.65-34 90.35-35.2 93.9-35.2L93.9-35.2Q98.95-35.2 102.17-32.68 105.4-30.15 105.75-25.75L105.75-25.75 99.45-25.75Q99.3-27.65 97.65-29 96-30.35 93.3-30.35L93.3-30.35Q90.85-30.35 89.3-29.1 87.75-27.85 87.75-25.5L87.75-25.5Q87.75-23.9 88.72-22.88 89.7-21.85 91.2-21.25 92.7-20.65 95.3-19.95L95.3-19.95Q98.75-19 100.92-18.05 103.1-17.1 104.62-15.13 106.15-13.15 106.15-9.85L106.15-9.85Q106.15-7.2 104.72-4.85 103.3-2.5 100.57-1.07 97.85 0.35 94.15 0.35L94.15 0.35Z" opacity="1" transform="matrix(1,0,0,1,0,0)" fill="#4790fc" class="undefined-text-0" data-fill-palette-color="primary" id="text-0"/>
                        </svg>
                      </g>
                    </svg>
                  </g>
                  <g transform="matrix(1,0,0,1,75.54431999999998,169.72791320250002)">
                    <svg viewBox="0 0 244.43136 64.72977047322188" height="64.72977047322188" width="244.43136">
                      <g transform="matrix(1,0,0,1,8,0)">
                        <svg width="228.43136" viewBox="1 -38.900001525878906 176.44000244140625 50" height="64.72977047322188" data-palette-color="#ed2326">
                          <path d="M41-38.9L41-30.7 38.5-30.7 38.5-8.2 41-8.2 41 0 22.1 0 22.1-8.2 24.5-8.2 24.5-16.45 17.5-16.45 17.5-8.2 19.9-8.2 19.9 0 1 0 1-8.2 3.5-8.2 3.5-30.7 1-30.7 1-38.9 19.9-38.9 19.9-30.7 17.5-30.7 17.5-23.1 24.5-23.1 24.5-30.7 22.1-30.7 22.1-38.9 41-38.9ZM57.8 0.7Q50.7 0.7 46.7-3.03 42.7-6.75 42.7-13.9L42.7-13.9Q42.7-21.05 46.7-24.78 50.7-28.5 57.8-28.5L57.8-28.5Q64.85-28.5 67.97-24.83 71.1-21.15 71.1-15.7L71.1-15.7 71.1-12.1 54.9-12.1 54.9-11.8Q54.9-9.95 56-9.08 57.1-8.2 59.65-8.2L59.65-8.2Q62.7-8.2 65.45-8.65 68.2-9.1 70.25-9.8L70.25-9.8 70.25-1.8Q68.5-0.85 65.12-0.08 61.75 0.7 57.8 0.7L57.8 0.7ZM54.9-17.6L60.7-17.6 60.7-18.2Q60.7-19.9 59.97-20.65 59.25-21.4 57.8-21.4L57.8-21.4Q56.35-21.4 55.62-20.63 54.9-19.85 54.9-18.2L54.9-18.2 54.9-17.6ZM88.5 0.05L72.6 0.05 72.6-8.2 74.8-8.2 74.8-30.7 72.6-30.7 72.6-38.9 86.3-38.9 86.3-8.2 88.5-8.2 88.5 0.05ZM89.89 11.1L89.89 2.9 92.09 2.9 92.09-19.6 89.89-19.6 89.89-27.8 103.59-27.8 103.59-24.4Q104.84-26 106.82-27.25 108.79-28.5 111.34-28.5L111.34-28.5Q116.44-28.5 119.02-24.7 121.59-20.9 121.59-13.9L121.59-13.9Q121.59-6.9 119.02-3.1 116.44 0.7 111.34 0.7L111.34 0.7Q108.79 0.7 106.82-0.55 104.84-1.8 103.59-3.4L103.59-3.4 103.59 2.9 107.04 2.9 107.04 11.1 89.89 11.1ZM106.49-8.2Q107.94-8.2 108.67-8.97 109.39-9.75 109.39-11.4L109.39-11.4 109.39-16.4Q109.39-18.05 108.67-18.82 107.94-19.6 106.49-19.6L106.49-19.6Q105.04-19.6 104.32-18.82 103.59-18.05 103.59-16.4L103.59-16.4 103.59-11.4Q103.59-9.75 104.32-8.97 105.04-8.2 106.49-8.2L106.49-8.2ZM137.89 0.7Q130.79 0.7 126.79-3.03 122.79-6.75 122.79-13.9L122.79-13.9Q122.79-21.05 126.79-24.78 130.79-28.5 137.89-28.5L137.89-28.5Q144.94-28.5 148.06-24.83 151.19-21.15 151.19-15.7L151.19-15.7 151.19-12.1 134.99-12.1 134.99-11.8Q134.99-9.95 136.09-9.08 137.19-8.2 139.74-8.2L139.74-8.2Q142.79-8.2 145.54-8.65 148.29-9.1 150.34-9.8L150.34-9.8 150.34-1.8Q148.59-0.85 145.22-0.08 141.84 0.7 137.89 0.7L137.89 0.7ZM134.99-17.6L140.79-17.6 140.79-18.2Q140.79-19.9 140.06-20.65 139.34-21.4 137.89-21.4L137.89-21.4Q136.44-21.4 135.72-20.63 134.99-19.85 134.99-18.2L134.99-18.2 134.99-17.6ZM174.04-28.5Q175.04-28.5 175.94-28.3 176.84-28.1 177.44-27.8L177.44-27.8 177.44-18.25Q175.39-19.1 173.04-19.1L173.04-19.1Q169.89-19.1 168.19-17.45 166.49-15.8 166.49-12.55L166.49-12.55 166.49-8.2 170.99-8.2 170.99 0 152.79 0 152.79-8.2 154.99-8.2 154.99-19.6 152.79-19.6 152.79-27.8 166.49-27.8 166.49-24.15Q167.89-26.25 169.69-27.38 171.49-28.5 174.04-28.5L174.04-28.5Z" opacity="1" transform="matrix(1,0,0,1,0,0)" fill="#ed2326" class="undefined-text-1" data-fill-palette-color="secondary" id="text-1"/>
                        </svg>
                      </g>
                    </svg>
                  </g>
                </svg>
              </g>
            </svg>
          </g>
          <g/>
        </svg>
      </g>
    </svg>
    <rect width="395.52" height="234.4576836757219" fill="none" stroke="none" visibility="hidden"/>
  </g>
</svg>